# https://github.com/mikedh/trimesh
v 9761.63321168 0.00000000 -3602.01870438
v 5877.05291971 0.00000000 7488.30976277
v 1677.69160584 0.00000000 8165.77326642
v -4873.40328467 0.00000000 8165.77326642
v -8938.18430657 0.00000000 4304.00319343
v -8618.84124088 0.00000000 -3020.35812044
v -322.76459854 0.00000000 -11834.22673358
v 5436.81569343 0.00000000 -9667.25593066
vt 1.00000000 0.41161040
vt 0.79226641 0.96612682
vt 0.56769944 1.00000000
vt 0.21737009 1.00000000
vt 0.00000000 0.80691150
vt 0.01707734 0.44069343
vt 0.46072213 0.00000000
vt 0.76872408 0.10834854
vn 0.00000000 1.00000000 0.00000000
vn 0.00000000 1.00000000 0.00000000
vn 0.00000000 1.00000000 0.00000000
vn 0.00000000 1.00000000 0.00000000
vn 0.00000000 1.00000000 0.00000000
vn 0.00000000 1.00000000 0.00000000
vn 0.00000000 1.00000000 0.00000000
vn 0.00000000 1.00000000 0.00000000
f 3/3/3 2/2/2 1/1/1
f 4/4/4 3/3/3 1/1/1
f 5/5/5 4/4/4 1/1/1
f 6/6/6 5/5/5 1/1/1
f 7/7/7 6/6/6 1/1/1
f 8/8/8 7/7/7 1/1/1
