# https://github.com/mikedh/trimesh
v 88.44400024 -251.11099243 -4.00000000
v 88.44400024 -251.11099243 0.00000000
v 55.55599976 -204.88900757 -4.00000000
v 55.55599976 -204.88900757 0.00000000
v 97.78791046 -251.23480225 -0.52763361
v 97.44608307 -252.14360046 1.22422075
v 103.93203735 -254.58320618 1.22422087
v 117.30306244 -258.57519531 -0.52763361
v 116.96123505 -259.48397827 1.22422493
v 73.33300018 -202.22200012 5.75000000
v 71.11100006 -202.66700745 7.75000000
v 73.33300018 -202.22200012 7.75000000
v 99.62458038 -246.35183716 4.66326475
v 101.03959656 -242.58988953 4.59149837
v 118.03682709 -256.62438965 2.92219782
v 118.47153473 -255.46868896 3.60843801
v 120.55474854 -249.93026733 4.59149837
v 98.66699982 -237.77799988 5.75000000
v 97.33300018 -239.55599976 7.75000000
v 98.66699982 -237.77799988 7.75000000
v 100.69566345 -243.50425720 6.35411072
v 104.45761108 -244.91926575 6.35411215
v 120.21222687 -250.84091187 6.34691620
v 113.77406311 -248.42102051 6.34985685
v 69.52250671 -175.19955444 -0.37911698
v 68.61911774 -174.88534546 1.34397221
v 73.13597870 -161.89915466 1.34397435
v 76.39833069 -155.43119812 -0.37911698
v 84.00000000 -123.11100006 -4.00000000
v 75.49494934 -155.11698914 1.34397435
v 84.00000000 -123.11100006 0.00000000
v 119.55599976 -117.33300018 -4.00000000
v 119.55599976 -117.33300018 0.00000000
v 71.65012360 -175.93959045 3.08205938
v 71.93538666 -176.03881836 3.24564123
v 77.99525452 -178.14654541 4.60038328
v 80.90123749 -156.99740601 4.44413424
v 84.87107849 -158.37818909 4.60038328
v 77.10773468 -177.83784485 6.29320240
v 82.44174194 -157.53321838 5.32751703
v 84.00649261 -158.07746887 6.24946976
v 96.00000000 -137.77799988 5.75000000
v 96.00000000 -137.77799988 7.75000000
v 94.66699982 -136.00000000 7.75000000
v 120.44400024 -133.77799988 5.75000000
v 120.44400024 -133.77799988 7.75000000
v 120.44400024 -131.55599976 7.75000000
v 136.88900757 -269.33300781 -4.00000000
v 136.88900757 -269.33300781 0.00000000
v 196.88900757 -205.77799988 -4.00000000
v 196.88900757 -205.77799988 0.00000000
v 132.44400024 -250.66700745 5.75000000
v 132.88900757 -252.88900757 7.75000000
v 132.44400024 -250.66700745 7.75000000
v 180.88900757 -199.11099243 5.75000000
v 180.88900757 -199.11099243 7.75000000
v 182.66700745 -200.00000000 7.75000000
v 130.44438171 -181.38900757 -4.00000000
v 131.99499512 -121.13983917 -0.20332210
v 131.99499512 -120.18289185 1.55288470
v 152.88499451 -121.13983917 -0.20332210
v 152.88499451 -120.18289185 1.55288470
v 194.00205994 -187.95173645 -0.29598445
v 194.95121765 -187.98939514 1.41772926
v 194.83306885 -167.00820923 -0.29598445
v 195.78222656 -167.04586792 1.41772711
v 165.33299255 -117.33300018 -4.00000000
v 199.11099243 -149.77799988 -4.00000000
v 165.33299255 -117.33300018 0.00000000
v 199.11099243 -149.77799988 0.00000000
v 130.44438171 -181.38900757 5.75000000
v 131.99499512 -130.11404419 4.68665600
v 152.88499451 -130.11404419 4.68665600
v 131.99499512 -129.15710449 6.44286108
v 159.11099243 -133.77799988 5.75000000
v 152.88499451 -129.15710449 6.44286108
v 159.11099243 -133.77799988 7.75000000
v 159.55599976 -131.55599976 7.75000000
v 185.00924683 -187.59490967 4.69260693
v 193.48686218 -166.95478821 2.65063405
v 185.84025574 -166.65138245 4.69260693
v 186.70669556 -187.66226196 5.84610415
v 185.89781189 -187.63017273 6.29692316
v 182.66700745 -156.00000000 5.75000000
v 186.77969360 -166.68865967 6.38876057
v 182.66700745 -156.00000000 7.75000000
v 184.88900757 -155.55599976 7.75000000
f 1 2 4
f 1 4 3
f 1 48 2
f 2 48 49
f 1 58 48
f 5 7 8
f 5 6 7
f 2 7 6
f 5 8 14
f 5 13 6
f 2 49 7
f 7 9 8
f 8 9 15
f 7 49 9
f 9 49 15
f 1 3 58
f 2 11 4
f 4 11 35
f 2 19 11
f 10 12 20
f 11 19 12
f 10 20 18
f 12 19 20
f 2 6 13
f 5 14 13
f 2 13 19
f 8 17 14
f 15 49 16
f 8 15 17
f 15 16 17
f 13 21 19
f 13 14 21
f 14 22 21
f 14 24 22
f 19 21 22
f 19 22 24
f 16 23 17
f 16 53 23
f 14 17 24
f 17 23 24
f 19 24 23
f 18 20 54
f 19 53 20
f 19 23 53
f 18 54 52
f 20 53 54
f 10 18 71
f 18 52 71
f 3 4 31
f 3 29 58
f 4 34 26
f 4 26 31
f 3 31 29
f 31 26 27
f 31 27 30
f 29 33 32
f 29 31 33
f 29 32 58
f 4 35 34
f 11 39 35
f 11 41 39
f 10 42 12
f 11 12 43
f 11 44 41
f 12 42 43
f 11 43 44
f 31 30 44
f 44 30 37
f 44 37 40
f 44 40 41
f 10 71 42
f 31 47 33
f 33 47 60
f 42 45 43
f 31 44 47
f 43 46 44
f 42 71 45
f 43 45 46
f 44 46 47
f 48 50 49
f 48 58 50
f 49 50 51
f 16 49 53
f 49 51 53
f 52 54 56
f 53 57 54
f 52 55 71
f 51 64 82
f 51 82 57
f 51 57 53
f 52 56 55
f 54 57 56
f 32 67 58
f 32 33 69
f 32 69 67
f 33 60 62
f 59 62 60
f 59 61 62
f 33 62 69
f 59 73 61
f 50 58 68
f 50 68 51
f 51 68 70
f 63 64 65
f 51 70 64
f 63 65 79
f 64 66 65
f 64 70 66
f 65 66 80
f 66 70 80
f 58 67 68
f 67 69 70
f 67 70 68
f 71 84 75
f 59 60 72
f 59 72 73
f 60 74 72
f 61 76 62
f 62 76 69
f 61 73 76
f 69 76 78
f 45 71 75
f 47 74 60
f 72 74 73
f 45 75 46
f 46 77 47
f 47 78 74
f 73 74 76
f 74 78 76
f 46 75 77
f 47 77 78
f 63 82 64
f 63 79 82
f 65 81 79
f 65 80 81
f 80 85 81
f 70 87 80
f 55 84 71
f 79 83 82
f 79 85 83
f 57 82 83
f 57 83 85
f 55 56 86
f 56 57 87
f 79 81 85
f 80 87 85
f 55 86 84
f 57 85 87
f 56 87 86
f 69 87 70
f 75 84 77
f 77 86 78
f 77 84 86
f 78 86 87
f 69 78 87
f 25 26 34
f 25 28 27
f 25 27 26
f 28 30 27
f 25 38 28
f 28 37 30
f 25 34 36
f 36 34 35
f 36 35 39
f 25 36 38
f 28 40 37
f 28 38 40
f 36 39 38
f 38 39 41
f 38 41 40

